<?xml version="1.0" encoding="UTF-8"?>
<svg xmlns="http://www.w3.org/2000/svg" width="1466" height="535" viewBox="0 0 1466 535" role="img" aria-label="SPIC MACAY VNIT logo">
<title>SPIC MACAY VNIT — dark theme</title>
<g fill-rule="evenodd" clip-rule="evenodd">
<path d="M 1013.0,375.0 L 1010.0,413.0 L 1013.0,413.0 L 1017.0,390.0 L 1024.0,382.0 L 1034.0,379.0 L 1055.0,379.0 L 1059.0,382.0 L 1059.0,484.0 L 1052.0,488.0 L 1035.0,488.0 L 1034.0,492.0 L 1099.0,492.0 L 1098.0,488.0 L 1081.0,488.0 L 1074.0,484.0 L 1074.0,382.0 L 1077.0,379.0 L 1099.0,379.0 L 1107.0,381.0 L 1114.0,387.0 L 1119.0,401.0 L 1120.0,413.0 L 1123.0,413.0 L 1120.0,375.0 Z" fill="#FFFFFF"/>
<path d="M 945.0,374.0 L 945.0,378.0 L 958.0,378.0 L 964.0,383.0 L 964.0,484.0 L 959.0,488.0 L 946.0,488.0 L 945.0,492.0 L 997.0,492.0 L 997.0,488.0 L 981.0,487.0 L 978.0,480.0 L 978.0,387.0 L 982.0,379.0 L 997.0,378.0 L 997.0,374.0 Z" fill="#FFFFFF"/>
<path d="M 814.0,374.0 L 814.0,378.0 L 829.0,378.0 L 832.0,380.0 L 832.0,480.0 L 825.0,487.0 L 815.0,488.0 L 814.0,492.0 L 854.0,492.0 L 853.0,488.0 L 843.0,487.0 L 836.0,480.0 L 837.0,383.0 L 909.0,489.0 L 914.0,492.0 L 915.0,387.0 L 920.0,380.0 L 933.0,378.0 L 933.0,374.0 L 893.0,374.0 L 893.0,378.0 L 906.0,380.0 L 911.0,387.0 L 910.0,466.0 L 846.0,374.0 Z" fill="#FFFFFF"/>
<path d="M 803.0,374.0 L 768.0,374.0 L 768.0,378.0 L 774.0,379.0 L 780.0,384.0 L 780.0,391.0 L 747.0,475.0 L 745.0,474.0 L 711.0,384.0 L 716.0,379.0 L 726.0,378.0 L 726.0,374.0 L 691.0,374.0 L 691.0,379.0 L 698.0,387.0 L 739.0,496.0 L 744.0,496.0 L 785.0,388.0 L 793.0,380.0 L 803.0,378.0 Z" fill="#FFFFFF"/>
<path d="M 691.0,164.0 L 691.0,166.0 L 699.0,172.0 L 701.0,177.0 L 701.0,290.0 L 691.0,302.0 L 724.0,302.0 L 712.0,296.0 L 708.0,282.0 L 708.0,203.0 L 710.0,189.0 L 713.0,190.0 L 764.0,301.0 L 767.0,300.0 L 818.0,189.0 L 821.0,195.0 L 821.0,283.0 L 818.0,295.0 L 814.0,299.0 L 809.0,300.0 L 809.0,302.0 L 855.0,302.0 L 845.0,299.0 L 840.0,293.0 L 839.0,178.0 L 841.0,171.0 L 845.0,167.0 L 856.0,164.0 L 821.0,164.0 L 818.0,167.0 L 791.0,231.0 L 771.0,270.0 L 769.0,270.0 L 721.0,165.0 Z" fill="#FFFFFF"/>
<path d="M 146.0,164.0 L 158.0,167.0 L 162.0,171.0 L 164.0,182.0 L 164.0,286.0 L 162.0,294.0 L 157.0,299.0 L 149.0,302.0 L 196.0,302.0 L 186.0,297.0 L 182.0,289.0 L 182.0,239.0 L 184.0,237.0 L 213.0,239.0 L 228.0,235.0 L 237.0,229.0 L 244.0,220.0 L 248.0,208.0 L 248.0,196.0 L 245.0,186.0 L 240.0,178.0 L 222.0,166.0 L 210.0,164.0 Z M 186.0,169.0 L 200.0,168.0 L 208.0,170.0 L 219.0,178.0 L 224.0,187.0 L 226.0,199.0 L 225.0,215.0 L 219.0,225.0 L 211.0,232.0 L 205.0,234.0 L 190.0,234.0 L 182.0,230.0 L 182.0,172.0 Z" fill="#FFFFFF"/>
<path d="M 1294.0,164.0 L 1310.0,175.0 L 1355.0,245.0 L 1355.0,289.0 L 1348.0,299.0 L 1339.0,302.0 L 1388.0,302.0 L 1380.0,299.0 L 1373.0,289.0 L 1373.0,243.0 L 1413.0,179.0 L 1422.0,170.0 L 1435.0,164.0 L 1392.0,164.0 L 1402.0,170.0 L 1404.0,176.0 L 1403.0,181.0 L 1384.0,214.0 L 1370.0,233.0 L 1367.0,232.0 L 1335.0,181.0 L 1335.0,170.0 L 1347.0,164.0 Z" fill="#FFFFFF"/>
<path d="M 264.0,164.0 L 276.0,167.0 L 281.0,172.0 L 282.0,286.0 L 280.0,294.0 L 275.0,299.0 L 267.0,302.0 L 313.0,302.0 L 313.0,300.0 L 307.0,299.0 L 302.0,294.0 L 300.0,284.0 L 300.0,182.0 L 302.0,172.0 L 310.0,165.0 L 317.0,164.0 Z" fill="#FFFFFF"/>
<path d="M 1231.0,162.0 L 1176.0,289.0 L 1168.0,298.0 L 1161.0,301.0 L 1198.0,302.0 L 1198.0,300.0 L 1191.0,299.0 L 1186.0,294.0 L 1186.0,286.0 L 1194.0,264.0 L 1200.0,256.0 L 1251.0,256.0 L 1256.0,261.0 L 1266.0,287.0 L 1265.0,295.0 L 1255.0,302.0 L 1301.0,302.0 L 1301.0,300.0 L 1291.0,295.0 L 1286.0,288.0 L 1233.0,162.0 Z M 1226.0,197.0 L 1230.0,200.0 L 1251.0,249.0 L 1249.0,251.0 L 1206.0,252.0 L 1202.0,250.0 L 1211.0,225.0 Z" fill="#FFFFFF"/>
<path d="M 939.0,162.0 L 886.0,286.0 L 880.0,295.0 L 870.0,300.0 L 870.0,302.0 L 907.0,302.0 L 906.0,300.0 L 899.0,299.0 L 895.0,295.0 L 894.0,285.0 L 902.0,265.0 L 908.0,256.0 L 960.0,256.0 L 965.0,263.0 L 974.0,286.0 L 974.0,294.0 L 963.0,302.0 L 1010.0,302.0 L 1010.0,300.0 L 1004.0,299.0 L 998.0,294.0 L 991.0,282.0 L 942.0,163.0 Z M 934.0,197.0 L 937.0,199.0 L 955.0,242.0 L 958.0,245.0 L 956.0,252.0 L 913.0,252.0 L 910.0,250.0 L 923.0,217.0 Z" fill="#FFFFFF"/>
<path d="M 1141.0,161.0 L 1131.0,168.0 L 1109.0,161.0 L 1077.0,162.0 L 1055.0,172.0 L 1038.0,189.0 L 1026.0,217.0 L 1026.0,252.0 L 1033.0,272.0 L 1039.0,281.0 L 1057.0,297.0 L 1078.0,305.0 L 1104.0,305.0 L 1119.0,300.0 L 1131.0,293.0 L 1144.0,278.0 L 1146.0,273.0 L 1131.0,287.0 L 1114.0,296.0 L 1089.0,297.0 L 1081.0,295.0 L 1069.0,289.0 L 1056.0,275.0 L 1047.0,249.0 L 1047.0,217.0 L 1049.0,205.0 L 1059.0,183.0 L 1067.0,175.0 L 1087.0,165.0 L 1113.0,167.0 L 1130.0,179.0 L 1144.0,204.0 L 1143.0,164.0 Z" fill="#FFFFFF"/>
<path d="M 453.0,162.0 L 450.0,162.0 L 443.0,168.0 L 419.0,161.0 L 387.0,162.0 L 366.0,172.0 L 348.0,190.0 L 337.0,216.0 L 336.0,249.0 L 342.0,268.0 L 349.0,280.0 L 369.0,298.0 L 390.0,305.0 L 415.0,305.0 L 434.0,298.0 L 453.0,281.0 L 457.0,273.0 L 440.0,289.0 L 425.0,296.0 L 400.0,297.0 L 388.0,294.0 L 373.0,283.0 L 365.0,272.0 L 359.0,257.0 L 357.0,240.0 L 358.0,216.0 L 362.0,199.0 L 369.0,184.0 L 381.0,172.0 L 397.0,165.0 L 417.0,165.0 L 433.0,172.0 L 442.0,180.0 L 455.0,204.0 Z" fill="#FFFFFF"/>
<path d="M 65.0,161.0 L 53.0,166.0 L 41.0,179.0 L 37.0,190.0 L 39.0,209.0 L 49.0,222.0 L 99.0,254.0 L 109.0,266.0 L 111.0,280.0 L 104.0,293.0 L 94.0,299.0 L 87.0,301.0 L 68.0,299.0 L 50.0,286.0 L 44.0,276.0 L 39.0,261.0 L 38.0,302.0 L 40.0,304.0 L 45.0,298.0 L 53.0,298.0 L 73.0,305.0 L 94.0,305.0 L 108.0,300.0 L 122.0,287.0 L 127.0,274.0 L 127.0,260.0 L 124.0,251.0 L 117.0,241.0 L 108.0,234.0 L 60.0,205.0 L 52.0,194.0 L 51.0,183.0 L 57.0,173.0 L 67.0,166.0 L 88.0,166.0 L 106.0,178.0 L 111.0,186.0 L 117.0,204.0 L 117.0,161.0 L 109.0,168.0 L 88.0,161.0 Z" fill="#FFFFFF"/>
<path d="M 513.0,267.0 L 514.0,286.0 L 514.0,275.0 L 515.0,274.0 L 517.0,277.0 L 518.0,299.0 L 516.0,300.0 L 518.0,313.0 L 520.0,316.0 L 521.0,323.0 L 524.0,325.0 L 523.0,331.0 L 528.0,336.0 L 526.0,338.0 L 526.0,341.0 L 530.0,344.0 L 529.0,352.0 L 532.0,357.0 L 533.0,363.0 L 536.0,364.0 L 535.0,367.0 L 538.0,371.0 L 539.0,378.0 L 541.0,379.0 L 540.0,382.0 L 546.0,385.0 L 545.0,391.0 L 551.0,396.0 L 551.0,402.0 L 556.0,406.0 L 554.0,409.0 L 560.0,419.0 L 563.0,419.0 L 564.0,426.0 L 569.0,427.0 L 569.0,430.0 L 567.0,432.0 L 569.0,434.0 L 573.0,432.0 L 574.0,435.0 L 572.0,438.0 L 576.0,444.0 L 579.0,444.0 L 580.0,441.0 L 574.0,440.0 L 576.0,438.0 L 578.0,439.0 L 583.0,434.0 L 587.0,433.0 L 586.0,427.0 L 588.0,424.0 L 590.0,425.0 L 592.0,422.0 L 591.0,417.0 L 593.0,415.0 L 596.0,415.0 L 596.0,408.0 L 599.0,404.0 L 601.0,406.0 L 601.0,403.0 L 605.0,396.0 L 604.0,392.0 L 605.0,391.0 L 607.0,393.0 L 610.0,387.0 L 608.0,384.0 L 613.0,381.0 L 611.0,377.0 L 612.0,376.0 L 614.0,378.0 L 615.0,375.0 L 614.0,369.0 L 617.0,368.0 L 615.0,364.0 L 619.0,364.0 L 620.0,362.0 L 619.0,359.0 L 621.0,358.0 L 621.0,349.0 L 623.0,348.0 L 623.0,351.0 L 625.0,349.0 L 627.0,339.0 L 625.0,338.0 L 626.0,333.0 L 629.0,332.0 L 632.0,324.0 L 630.0,316.0 L 632.0,312.0 L 634.0,314.0 L 634.0,312.0 L 632.0,311.0 L 635.0,310.0 L 635.0,307.0 L 632.0,305.0 L 634.0,296.0 L 635.0,305.0 L 637.0,303.0 L 638.0,295.0 L 636.0,294.0 L 636.0,291.0 L 638.0,290.0 L 639.0,285.0 L 639.0,271.0 L 624.0,292.0 L 609.0,304.0 L 604.0,305.0 L 607.0,305.0 L 609.0,307.0 L 608.0,309.0 L 603.0,308.0 L 601.0,306.0 L 599.0,308.0 L 591.0,310.0 L 595.0,311.0 L 599.0,315.0 L 598.0,318.0 L 600.0,317.0 L 602.0,319.0 L 600.0,321.0 L 602.0,328.0 L 604.0,327.0 L 606.0,329.0 L 605.0,331.0 L 603.0,330.0 L 604.0,339.0 L 601.0,349.0 L 602.0,354.0 L 599.0,355.0 L 601.0,357.0 L 599.0,359.0 L 596.0,359.0 L 594.0,363.0 L 595.0,368.0 L 594.0,369.0 L 592.0,367.0 L 590.0,379.0 L 593.0,379.0 L 591.0,381.0 L 591.0,387.0 L 593.0,391.0 L 592.0,396.0 L 582.0,395.0 L 581.0,393.0 L 583.0,392.0 L 583.0,390.0 L 581.0,389.0 L 580.0,391.0 L 578.0,388.0 L 581.0,385.0 L 580.0,378.0 L 583.0,367.0 L 582.0,363.0 L 580.0,363.0 L 579.0,361.0 L 581.0,359.0 L 585.0,362.0 L 588.0,357.0 L 586.0,355.0 L 589.0,354.0 L 591.0,350.0 L 591.0,344.0 L 593.0,343.0 L 591.0,335.0 L 592.0,328.0 L 591.0,326.0 L 588.0,326.0 L 586.0,324.0 L 586.0,321.0 L 583.0,319.0 L 574.0,319.0 L 570.0,321.0 L 570.0,325.0 L 565.0,326.0 L 565.0,337.0 L 563.0,333.0 L 565.0,349.0 L 568.0,349.0 L 566.0,352.0 L 572.0,360.0 L 574.0,360.0 L 575.0,356.0 L 577.0,357.0 L 576.0,361.0 L 574.0,362.0 L 575.0,370.0 L 576.0,366.0 L 578.0,366.0 L 578.0,382.0 L 580.0,383.0 L 577.0,386.0 L 575.0,384.0 L 573.0,394.0 L 565.0,397.0 L 562.0,395.0 L 562.0,389.0 L 565.0,383.0 L 562.0,380.0 L 563.0,378.0 L 565.0,379.0 L 565.0,373.0 L 563.0,372.0 L 564.0,366.0 L 560.0,363.0 L 562.0,361.0 L 558.0,360.0 L 559.0,356.0 L 556.0,357.0 L 553.0,353.0 L 554.0,344.0 L 552.0,335.0 L 552.0,325.0 L 563.0,315.0 L 561.0,313.0 L 563.0,311.0 L 543.0,304.0 L 526.0,289.0 L 524.0,284.0 L 517.0,276.0 Z M 559.0,389.0 L 561.0,390.0 L 560.0,394.0 L 558.0,391.0 Z M 599.0,363.0 L 600.0,362.0 L 601.0,364.0 L 600.0,365.0 Z M 604.0,333.0 L 606.0,332.0 L 607.0,334.0 L 605.0,335.0 Z M 521.0,288.0 L 522.0,287.0 L 524.0,289.0 L 522.0,290.0 Z" fill="#FFE500"/>
<path d="M 578.0,110.0 L 579.0,115.0 L 576.0,117.0 L 574.0,128.0 L 569.0,138.0 L 566.0,139.0 L 568.0,141.0 L 568.0,144.0 L 567.0,145.0 L 565.0,142.0 L 563.0,160.0 L 564.0,164.0 L 568.0,169.0 L 572.0,170.0 L 576.0,168.0 L 578.0,170.0 L 582.0,169.0 L 583.0,171.0 L 585.0,171.0 L 582.0,169.0 L 583.0,167.0 L 589.0,167.0 L 589.0,162.0 L 593.0,161.0 L 593.0,147.0 L 588.0,134.0 L 585.0,134.0 L 583.0,132.0 L 586.0,131.0 L 585.0,128.0 L 583.0,132.0 L 581.0,129.0 L 581.0,127.0 L 583.0,126.0 L 580.0,113.0 L 581.0,110.0 Z M 574.0,132.0 L 575.0,131.0 L 576.0,133.0 L 575.0,134.0 Z" fill="#FFE500"/>
<path d="M 576.0,45.0 L 572.0,52.0 L 574.0,57.0 L 572.0,59.0 L 570.0,57.0 L 568.0,58.0 L 562.0,69.0 L 562.0,71.0 L 564.0,72.0 L 557.0,77.0 L 556.0,80.0 L 558.0,82.0 L 554.0,83.0 L 551.0,95.0 L 548.0,97.0 L 549.0,100.0 L 547.0,102.0 L 545.0,101.0 L 546.0,106.0 L 543.0,107.0 L 543.0,109.0 L 540.0,111.0 L 541.0,119.0 L 538.0,119.0 L 537.0,125.0 L 534.0,128.0 L 534.0,133.0 L 531.0,136.0 L 533.0,139.0 L 530.0,139.0 L 528.0,143.0 L 530.0,149.0 L 526.0,152.0 L 526.0,156.0 L 528.0,158.0 L 525.0,159.0 L 523.0,162.0 L 523.0,166.0 L 527.0,170.0 L 525.0,171.0 L 524.0,169.0 L 521.0,169.0 L 523.0,176.0 L 519.0,178.0 L 520.0,181.0 L 517.0,185.0 L 516.0,194.0 L 518.0,197.0 L 515.0,201.0 L 513.0,216.0 L 515.0,214.0 L 516.0,207.0 L 518.0,215.0 L 529.0,199.0 L 532.0,198.0 L 541.0,189.0 L 556.0,183.0 L 553.0,181.0 L 558.0,179.0 L 560.0,182.0 L 568.0,180.0 L 568.0,178.0 L 563.0,179.0 L 563.0,176.0 L 556.0,169.0 L 554.0,170.0 L 552.0,166.0 L 554.0,164.0 L 552.0,157.0 L 554.0,145.0 L 552.0,143.0 L 554.0,139.0 L 556.0,141.0 L 559.0,136.0 L 557.0,134.0 L 558.0,130.0 L 562.0,130.0 L 565.0,122.0 L 565.0,114.0 L 563.0,113.0 L 565.0,111.0 L 562.0,110.0 L 564.0,108.0 L 564.0,105.0 L 561.0,98.0 L 564.0,92.0 L 565.0,94.0 L 574.0,96.0 L 572.0,99.0 L 575.0,110.0 L 577.0,107.0 L 581.0,107.0 L 579.0,102.0 L 583.0,101.0 L 583.0,94.0 L 590.0,94.0 L 593.0,97.0 L 590.0,111.0 L 591.0,121.0 L 594.0,128.0 L 596.0,126.0 L 598.0,127.0 L 598.0,130.0 L 596.0,132.0 L 602.0,140.0 L 601.0,143.0 L 604.0,152.0 L 603.0,160.0 L 606.0,163.0 L 603.0,164.0 L 601.0,167.0 L 604.0,169.0 L 600.0,170.0 L 596.0,174.0 L 599.0,177.0 L 598.0,178.0 L 595.0,178.0 L 593.0,176.0 L 588.0,178.0 L 588.0,180.0 L 612.0,189.0 L 628.0,203.0 L 629.0,207.0 L 639.0,221.0 L 639.0,204.0 L 636.0,201.0 L 638.0,200.0 L 638.0,195.0 L 635.0,191.0 L 636.0,186.0 L 632.0,183.0 L 632.0,180.0 L 634.0,179.0 L 634.0,176.0 L 632.0,178.0 L 631.0,177.0 L 632.0,166.0 L 628.0,158.0 L 627.0,152.0 L 624.0,151.0 L 623.0,145.0 L 625.0,144.0 L 625.0,141.0 L 622.0,135.0 L 618.0,133.0 L 620.0,131.0 L 620.0,128.0 L 618.0,127.0 L 618.0,129.0 L 616.0,129.0 L 617.0,123.0 L 614.0,122.0 L 615.0,115.0 L 613.0,113.0 L 613.0,110.0 L 609.0,109.0 L 609.0,102.0 L 606.0,103.0 L 603.0,99.0 L 606.0,96.0 L 603.0,97.0 L 601.0,94.0 L 603.0,92.0 L 602.0,87.0 L 599.0,87.0 L 600.0,84.0 L 597.0,82.0 L 597.0,76.0 L 592.0,68.0 L 590.0,70.0 L 588.0,68.0 L 586.0,56.0 L 584.0,54.0 L 582.0,56.0 L 581.0,55.0 L 581.0,48.0 L 578.0,45.0 Z M 624.0,197.0 L 626.0,196.0 L 628.0,198.0 L 625.0,199.0 Z M 603.0,166.0 L 604.0,165.0 L 605.0,167.0 L 604.0,168.0 Z M 525.0,161.0 L 527.0,160.0 L 528.0,162.0 L 526.0,163.0 Z M 536.0,126.0 L 538.0,125.0 L 539.0,127.0 L 538.0,128.0 Z M 542.0,110.0 L 543.0,109.0 L 544.0,111.0 L 543.0,112.0 Z M 560.0,106.0 L 561.0,105.0 L 562.0,107.0 L 561.0,108.0 Z M 585.0,92.0 L 587.0,91.0 L 588.0,93.0 L 586.0,94.0 Z M 552.0,91.0 L 553.0,90.0 L 554.0,92.0 L 553.0,93.0 Z M 577.0,47.0 L 578.0,50.0 L 576.0,51.0 L 575.0,49.0 Z" fill="#FFE500"/>
<path d="M 585.0,179.0 L 579.0,181.0 L 571.0,179.0 L 568.0,181.0 L 556.0,183.0 L 542.0,189.0 L 535.0,194.0 L 525.0,204.0 L 517.0,216.0 L 512.0,226.0 L 511.0,236.0 L 512.0,264.0 L 515.0,268.0 L 517.0,275.0 L 526.0,288.0 L 542.0,303.0 L 561.0,310.0 L 572.0,312.0 L 576.0,310.0 L 591.0,310.0 L 612.0,302.0 L 628.0,287.0 L 635.0,277.0 L 636.0,273.0 L 640.0,268.0 L 641.0,258.0 L 640.0,225.0 L 628.0,204.0 L 613.0,190.0 Z" fill="#C9251D"/>
<path d="M 680.0,374.0 L 680.0,378.0 L 690.0,378.0 L 690.0,374.0 Z" fill="#000000"/>
<path d="M 572.0,313.0 L 561.0,319.0 L 555.0,331.0 L 556.0,345.0 L 566.0,363.0 L 568.0,371.0 L 568.0,380.0 L 565.0,394.0 L 568.0,394.0 L 572.0,387.0 L 573.0,371.0 L 572.0,364.0 L 562.0,349.0 L 560.0,341.0 L 560.0,331.0 L 562.0,325.0 L 568.0,319.0 L 577.0,316.0 L 586.0,317.0 L 593.0,324.0 L 597.0,336.0 L 593.0,352.0 L 583.0,372.0 L 583.0,385.0 L 587.0,394.0 L 590.0,394.0 L 588.0,385.0 L 588.0,371.0 L 594.0,357.0 L 599.0,350.0 L 601.0,341.0 L 601.0,331.0 L 599.0,324.0 L 594.0,318.0 L 584.0,313.0 Z" fill="#000000"/>
<path d="M 565.0,97.0 L 568.0,110.0 L 568.0,121.0 L 565.0,130.0 L 556.0,145.0 L 556.0,164.0 L 559.0,169.0 L 568.0,176.0 L 575.0,178.0 L 586.0,177.0 L 598.0,169.0 L 601.0,161.0 L 601.0,150.0 L 599.0,141.0 L 590.0,126.0 L 588.0,118.0 L 588.0,107.0 L 590.0,98.0 L 588.0,97.0 L 585.0,101.0 L 583.0,107.0 L 583.0,119.0 L 595.0,145.0 L 596.0,159.0 L 594.0,165.0 L 589.0,172.0 L 577.0,175.0 L 566.0,171.0 L 560.0,161.0 L 560.0,148.0 L 563.0,139.0 L 571.0,129.0 L 573.0,119.0 L 571.0,102.0 L 568.0,97.0 Z" fill="#000000"/>
<path d="M 578.0,15.0 L 576.0,16.0 L 576.0,32.0 L 573.0,35.0 L 569.0,33.0 L 562.0,25.0 L 560.0,25.0 L 561.0,29.0 L 569.0,40.0 L 569.0,44.0 L 562.0,51.0 L 547.0,41.0 L 547.0,43.0 L 561.0,57.0 L 553.0,70.0 L 550.0,70.0 L 543.0,65.0 L 539.0,64.0 L 538.0,62.0 L 535.0,62.0 L 535.0,65.0 L 540.0,69.0 L 547.0,71.0 L 550.0,74.0 L 550.0,79.0 L 547.0,85.0 L 544.0,87.0 L 540.0,87.0 L 535.0,83.0 L 527.0,81.0 L 530.0,85.0 L 535.0,87.0 L 540.0,92.0 L 539.0,98.0 L 516.0,99.0 L 516.0,103.0 L 534.0,104.0 L 536.0,108.0 L 532.0,117.0 L 528.0,120.0 L 511.0,120.0 L 511.0,122.0 L 526.0,123.0 L 527.0,132.0 L 523.0,137.0 L 504.0,138.0 L 504.0,141.0 L 518.0,141.0 L 522.0,145.0 L 520.0,152.0 L 517.0,156.0 L 499.0,158.0 L 499.0,160.0 L 514.0,160.0 L 516.0,162.0 L 514.0,174.0 L 512.0,176.0 L 493.0,177.0 L 494.0,181.0 L 505.0,180.0 L 510.0,181.0 L 512.0,183.0 L 510.0,195.0 L 507.0,198.0 L 491.0,198.0 L 491.0,200.0 L 494.0,201.0 L 506.0,201.0 L 508.0,203.0 L 508.0,210.0 L 504.0,216.0 L 487.0,217.0 L 488.0,220.0 L 503.0,220.0 L 506.0,223.0 L 506.0,233.0 L 502.0,239.0 L 489.0,239.0 L 490.0,242.0 L 504.0,243.0 L 505.0,257.0 L 502.0,260.0 L 488.0,260.0 L 487.0,262.0 L 503.0,263.0 L 506.0,266.0 L 507.0,283.0 L 504.0,285.0 L 489.0,285.0 L 489.0,288.0 L 506.0,289.0 L 509.0,292.0 L 511.0,308.0 L 509.0,310.0 L 496.0,310.0 L 494.0,311.0 L 494.0,314.0 L 511.0,315.0 L 514.0,318.0 L 516.0,333.0 L 514.0,335.0 L 499.0,335.0 L 499.0,338.0 L 517.0,340.0 L 520.0,343.0 L 525.0,356.0 L 523.0,360.0 L 506.0,360.0 L 506.0,363.0 L 524.0,365.0 L 529.0,369.0 L 533.0,378.0 L 533.0,383.0 L 517.0,384.0 L 516.0,388.0 L 538.0,390.0 L 544.0,402.0 L 544.0,407.0 L 540.0,409.0 L 525.0,409.0 L 527.0,411.0 L 547.0,412.0 L 552.0,418.0 L 552.0,420.0 L 540.0,430.0 L 536.0,436.0 L 538.0,437.0 L 554.0,425.0 L 560.0,431.0 L 561.0,436.0 L 550.0,447.0 L 547.0,453.0 L 549.0,453.0 L 562.0,441.0 L 565.0,441.0 L 569.0,446.0 L 570.0,450.0 L 562.0,462.0 L 559.0,470.0 L 561.0,470.0 L 567.0,461.0 L 572.0,456.0 L 574.0,456.0 L 576.0,458.0 L 576.0,479.0 L 579.0,478.0 L 579.0,461.0 L 581.0,459.0 L 585.0,461.0 L 591.0,470.0 L 594.0,470.0 L 594.0,468.0 L 584.0,453.0 L 584.0,449.0 L 589.0,443.0 L 592.0,443.0 L 598.0,447.0 L 603.0,453.0 L 606.0,452.0 L 594.0,438.0 L 594.0,431.0 L 600.0,426.0 L 608.0,433.0 L 616.0,436.0 L 616.0,434.0 L 602.0,422.0 L 602.0,417.0 L 606.0,412.0 L 627.0,410.0 L 627.0,408.0 L 609.0,407.0 L 611.0,399.0 L 617.0,389.0 L 633.0,389.0 L 637.0,387.0 L 637.0,385.0 L 635.0,384.0 L 620.0,383.0 L 620.0,379.0 L 624.0,369.0 L 628.0,365.0 L 646.0,363.0 L 646.0,360.0 L 630.0,360.0 L 628.0,358.0 L 628.0,355.0 L 632.0,347.0 L 632.0,344.0 L 635.0,340.0 L 653.0,338.0 L 653.0,335.0 L 639.0,335.0 L 637.0,333.0 L 639.0,317.0 L 641.0,315.0 L 658.0,314.0 L 658.0,311.0 L 644.0,310.0 L 642.0,308.0 L 643.0,294.0 L 647.0,289.0 L 664.0,288.0 L 663.0,285.0 L 649.0,285.0 L 645.0,281.0 L 647.0,266.0 L 650.0,263.0 L 665.0,262.0 L 664.0,260.0 L 651.0,260.0 L 649.0,258.0 L 648.0,244.0 L 650.0,242.0 L 662.0,242.0 L 664.0,241.0 L 664.0,239.0 L 651.0,239.0 L 648.0,236.0 L 647.0,222.0 L 650.0,220.0 L 665.0,220.0 L 666.0,218.0 L 665.0,216.0 L 649.0,216.0 L 645.0,210.0 L 645.0,203.0 L 647.0,201.0 L 659.0,201.0 L 661.0,200.0 L 661.0,198.0 L 646.0,198.0 L 644.0,196.0 L 642.0,183.0 L 644.0,181.0 L 659.0,180.0 L 660.0,177.0 L 641.0,176.0 L 639.0,174.0 L 638.0,162.0 L 640.0,160.0 L 653.0,160.0 L 653.0,158.0 L 638.0,157.0 L 635.0,154.0 L 632.0,145.0 L 635.0,141.0 L 649.0,141.0 L 649.0,138.0 L 631.0,137.0 L 628.0,135.0 L 626.0,125.0 L 628.0,123.0 L 640.0,122.0 L 642.0,120.0 L 624.0,119.0 L 618.0,107.0 L 620.0,104.0 L 636.0,103.0 L 637.0,99.0 L 616.0,99.0 L 613.0,96.0 L 613.0,92.0 L 615.0,89.0 L 626.0,81.0 L 624.0,80.0 L 611.0,87.0 L 606.0,82.0 L 604.0,78.0 L 604.0,73.0 L 607.0,70.0 L 614.0,68.0 L 617.0,65.0 L 617.0,62.0 L 609.0,65.0 L 604.0,69.0 L 601.0,69.0 L 594.0,58.0 L 594.0,54.0 L 601.0,48.0 L 605.0,42.0 L 601.0,43.0 L 593.0,49.0 L 590.0,49.0 L 584.0,42.0 L 584.0,39.0 L 591.0,29.0 L 592.0,25.0 L 590.0,25.0 L 584.0,32.0 L 581.0,33.0 L 579.0,31.0 Z M 576.0,42.0 L 579.0,42.0 L 582.0,45.0 L 605.0,86.0 L 606.0,92.0 L 610.0,97.0 L 612.0,104.0 L 616.0,110.0 L 617.0,118.0 L 627.0,138.0 L 629.0,153.0 L 634.0,164.0 L 634.0,170.0 L 639.0,186.0 L 643.0,225.0 L 643.0,265.0 L 641.0,293.0 L 639.0,306.0 L 634.0,320.0 L 632.0,333.0 L 629.0,339.0 L 627.0,352.0 L 617.0,373.0 L 615.0,383.0 L 607.0,396.0 L 600.0,414.0 L 595.0,420.0 L 590.0,430.0 L 590.0,433.0 L 578.0,449.0 L 573.0,445.0 L 571.0,440.0 L 564.0,432.0 L 559.0,421.0 L 550.0,407.0 L 548.0,400.0 L 538.0,383.0 L 536.0,373.0 L 533.0,370.0 L 531.0,362.0 L 526.0,353.0 L 524.0,340.0 L 517.0,320.0 L 512.0,296.0 L 509.0,250.0 L 512.0,197.0 L 516.0,177.0 L 524.0,154.0 L 526.0,141.0 L 536.0,120.0 L 538.0,110.0 L 549.0,90.0 L 549.0,87.0 L 553.0,79.0 L 560.0,69.0 L 565.0,57.0 Z" fill="#000000"/>
</g>
</svg>